<?xml version="1.0" standalone="no"?><!DOCTYPE svg PUBLIC "-//W3C//DTD SVG 1.1//EN" "http://www.w3.org/Graphics/SVG/1.1/DTD/svg11.dtd"><svg height="1024" node-id="1" sillyvg="true" template-height="1024" template-width="1024" version="1.1" viewBox="0 0 1024 1024" width="1024" xmlns="http://www.w3.org/2000/svg" xmlns:xlink="http://www.w3.org/1999/xlink"><defs node-id="104"></defs><path d="M 963.60 407.20 L 960.80 393.80 L 958.70 380.90 L 953.40 343.90 L 951.10 332.50 L 949.10 325.10 L 946.80 318.00 L 944.00 311.20 L 941.50 306.30 L 938.70 301.50 L 935.40 296.80 L 931.70 292.30 L 927.80 288.10 L 923.20 284.00 L 918.00 280.00 L 912.10 276.10 L 902.30 270.50 L 892.30 265.30 L 882.00 260.60 L 871.50 256.40 L 860.60 252.60 L 849.60 249.40 L 838.50 246.50 L 827.10 244.20 L 815.60 242.20 L 803.80 240.80 L 792.10 239.80 L 780.20 239.20 L 768.30 239.00 L 756.30 239.30 L 744.10 240.10 L 732.10 241.20 L 720.00 242.80 L 708.00 244.80 L 696.00 247.20 L 683.90 250.10 L 661.40 256.70 L 650.30 260.60 L 624.80 270.90 L 610.40 277.40 L 596.10 284.30 L 547.60 309.50 L 541.20 311.90 L 534.80 313.90 L 521.50 316.50 L 514.70 317.20 L 504.50 317.70 L 494.00 317.70 L 451.90 316.30 L 441.30 316.50 L 422.80 317.70 L 413.80 317.60 L 403.60 316.90 L 382.60 314.40 L 370.80 312.50 L 293.00 298.50 L 264.80 294.40 L 250.30 292.80 L 235.80 291.60 L 221.20 290.80 L 206.60 290.50 L 184.70 291.30 L 163.00 293.60 L 153.60 295.30 L 144.60 297.60 L 135.90 300.50 L 127.40 303.90 L 119.20 307.80 L 111.30 312.20 L 103.70 317.10 L 96.40 322.40 L 89.40 328.20 L 82.70 334.20 L 76.20 340.70 L 70.10 347.50 L 58.80 361.90 L 48.60 377.30 L 42.60 388.10 L 37.10 399.00 L 32.20 410.20 L 27.90 421.60 L 24.20 432.90 L 21.10 444.20 L 18.50 455.70 L 16.60 466.90 L 15.30 477.80 L 14.50 494.10 L 15.10 509.10 L 16.10 516.50 L 17.40 523.70 L 19.20 530.80 L 21.50 537.80 L 25.00 547.00 L 29.20 556.00 L 33.90 565.00 L 44.70 582.30 L 60.00 603.50 L 99.10 652.50 L 108.00 664.40 L 118.80 680.60 L 123.40 688.50 L 127.60 696.70 L 131.10 704.80 L 136.30 719.80 L 139.40 726.80 L 143.20 733.70 L 147.70 740.70 L 152.60 747.30 L 158.20 753.80 L 164.50 760.20 L 171.60 766.60 L 178.80 772.50 L 186.80 778.20 L 195.40 783.80 L 204.80 789.20 L 214.30 794.00 L 224.40 798.60 L 235.20 802.90 L 246.70 807.00 L 258.20 810.40 L 270.30 813.50 L 283.10 816.20 L 296.50 818.50 L 309.80 820.20 L 323.80 821.40 L 338.30 822.00 L 353.50 822.20 L 368.50 821.80 L 384.10 820.70 L 400.20 819.00 L 417.00 816.70 L 436.30 813.30 L 454.60 809.60 L 471.80 805.70 L 489.00 801.40 L 520.40 792.40 L 542.90 785.40 L 602.10 765.80 L 625.80 758.70 L 636.70 755.80 L 647.70 753.40 L 658.20 751.50 L 668.20 750.30 L 675.80 749.80 L 683.10 749.80 L 690.30 750.20 L 697.30 751.00 L 704.20 752.30 L 711.10 754.20 L 717.90 756.60 L 735.10 764.30 L 746.00 768.80 L 757.30 773.00 L 768.80 776.60 L 780.60 779.60 L 792.70 782.10 L 801.80 783.50 L 810.90 784.40 L 820.10 784.90 L 829.40 784.90 L 838.70 784.40 L 847.90 783.30 L 857.10 781.60 L 866.30 779.30 L 873.40 777.10 L 880.60 774.40 L 887.70 771.20 L 894.80 767.60 L 901.80 763.40 L 908.50 758.90 L 915.20 753.90 L 921.70 748.20 L 928.30 742.00 L 934.80 735.00 L 940.80 728.00 L 946.60 720.20 L 952.50 711.70 L 958.20 702.40 L 963.90 692.20 L 969.90 680.20 L 975.50 668.10 L 980.70 655.90 L 985.50 643.60 L 989.80 631.20 L 993.70 618.70 L 997.20 606.20 L 1000.20 593.60 L 1002.90 580.90 L 1005.00 568.20 L 1006.70 555.60 L 1007.90 543.00 L 1007.90 531.80 L 1007.40 526.20 L 1004.90 513.00 L 1002.80 505.40 L 1000.20 497.80 L 995.90 486.40 L 990.90 474.90 L 975.40 440.60 L 970.70 429.40 L 967.90 421.90 L 963.60 407.20 Z" fill="#8c71ff" fill-rule="nonzero" node-id="106" stroke="none" target-height="583.2" target-width="993.4" target-x="14.5" target-y="239"></path><g node-id="301"><path d="M 963.60 407.20 L 960.80 393.80 L 958.70 380.90 L 953.40 343.90 L 951.10 332.50 L 949.10 325.10 L 946.80 318.00 L 944.00 311.20 L 941.50 306.30 L 938.70 301.50 L 935.40 296.80 L 931.70 292.30 L 927.80 288.10 L 923.20 284.00 L 918.00 280.00 L 912.10 276.10 L 902.30 270.50 L 892.30 265.30 L 882.00 260.60 L 871.50 256.40 L 860.60 252.60 L 849.60 249.40 L 838.50 246.50 L 827.10 244.20 L 815.60 242.20 L 803.80 240.80 L 792.10 239.80 L 780.20 239.20 L 768.30 239.00 L 756.30 239.30 L 744.10 240.10 L 732.10 241.20 L 720.00 242.80 L 708.00 244.80 L 696.00 247.20 L 683.90 250.10 L 661.40 256.70 L 650.30 260.60 L 624.80 270.90 L 610.40 277.40 L 596.10 284.30 L 547.60 309.50 L 541.20 311.90 L 534.80 313.90 L 521.50 316.50 L 514.70 317.20 L 504.50 317.70 L 494.00 317.70 L 451.90 316.30 L 441.30 316.50 L 422.80 317.70 L 413.80 317.60 L 403.60 316.90 L 382.60 314.40 L 370.80 312.50 L 293.00 298.50 L 264.80 294.40 L 250.30 292.80 L 235.80 291.60 L 221.20 290.80 L 206.60 290.50 L 184.70 291.30 L 163.00 293.60 L 153.60 295.30 L 144.60 297.60 L 135.90 300.50 L 127.40 303.90 L 119.20 307.80 L 111.30 312.20 L 103.70 317.10 L 96.40 322.40 L 89.40 328.20 L 82.70 334.20 L 76.20 340.70 L 70.10 347.50 L 58.80 361.90 L 48.60 377.30 L 42.60 388.10 L 37.10 399.00 L 32.20 410.20 L 27.90 421.60 L 24.20 432.90 L 21.10 444.20 L 18.50 455.70 L 16.60 466.90 L 15.30 477.80 L 14.50 494.10 L 15.10 509.10 L 16.10 516.50 L 17.40 523.70 L 19.20 530.80 L 21.50 537.80 L 25.00 547.00 L 29.20 556.00 L 33.90 565.00 L 44.70 582.30 L 60.00 603.50 L 99.10 652.50 L 108.00 664.40 L 118.80 680.60 L 123.40 688.50 L 127.60 696.70 L 131.10 704.80 L 136.30 719.80 L 139.40 726.80 L 143.20 733.70 L 147.70 740.70 L 152.60 747.30 L 158.20 753.80 L 164.50 760.20 L 171.60 766.60 L 178.80 772.50 L 186.80 778.20 L 195.40 783.80 L 204.80 789.20 L 214.30 794.00 L 224.40 798.60 L 235.20 802.90 L 246.70 807.00 L 258.20 810.40 L 270.30 813.50 L 283.10 816.20 L 296.50 818.50 L 309.80 820.20 L 323.80 821.40 L 338.30 822.00 L 353.50 822.20 L 368.50 821.80 L 384.10 820.70 L 400.20 819.00 L 417.00 816.70 L 436.30 813.30 L 454.60 809.60 L 471.80 805.70 L 489.00 801.40 L 520.40 792.40 L 542.90 785.40 L 602.10 765.80 L 625.80 758.70 L 636.70 755.80 L 647.70 753.40 L 658.20 751.50 L 668.20 750.30 L 675.80 749.80 L 683.10 749.80 L 690.30 750.20 L 697.30 751.00 L 704.20 752.30 L 711.10 754.20 L 717.90 756.60 L 735.10 764.30 L 746.00 768.80 L 757.30 773.00 L 768.80 776.60 L 780.60 779.60 L 792.70 782.10 L 801.80 783.50 L 810.90 784.40 L 820.10 784.90 L 829.40 784.90 L 838.70 784.40 L 847.90 783.30 L 857.10 781.60 L 866.30 779.30 L 873.40 777.10 L 880.60 774.40 L 887.70 771.20 L 894.80 767.60 L 901.80 763.40 L 908.50 758.90 L 915.20 753.90 L 921.70 748.20 L 928.30 742.00 L 934.80 735.00 L 940.80 728.00 L 946.60 720.20 L 952.50 711.70 L 958.20 702.40 L 963.90 692.20 L 969.90 680.20 L 975.50 668.10 L 980.70 655.90 L 985.50 643.60 L 989.80 631.20 L 993.70 618.70 L 997.20 606.20 L 1000.20 593.60 L 1002.90 580.90 L 1005.00 568.20 L 1006.70 555.60 L 1007.90 543.00 L 1007.90 531.80 L 1007.40 526.20 L 1004.90 513.00 L 1002.80 505.40 L 1000.20 497.80 L 995.90 486.40 L 990.90 474.90 L 975.40 440.60 L 970.70 429.40 L 967.90 421.90 L 963.60 407.20 Z" fill="#ffffff" fill-opacity="0.86" fill-rule="nonzero" group-id="1" node-id="110" stroke="none" target-height="583.2" target-width="993.4" target-x="14.5" target-y="239"></path></g><path d="M 825.70 655.80 L 829.60 655.70 L 834.20 655.00 L 839.90 653.50 L 842.40 661.30 L 845.50 668.90 L 849.50 677.60 L 846.30 673.70 L 842.10 670.50 L 837.10 668.10 L 832.90 667.30 L 830.00 667.90 L 827.70 669.60 L 826.30 672.10 L 826.00 673.50 L 826.30 676.40 L 828.20 679.40 L 829.70 680.70 L 831.60 681.90 L 835.60 683.30 L 839.70 683.80 L 842.40 683.50 L 851.40 681.60 L 860.90 700.70 L 863.30 706.30 L 860.40 702.60 L 856.10 699.50 L 851.10 697.10 L 847.00 696.30 L 844.10 696.80 L 841.80 698.60 L 840.40 701.10 L 840.10 702.50 L 840.40 705.30 L 842.20 708.30 L 843.80 709.70 L 845.60 710.80 L 849.70 712.30 L 853.70 712.80 L 856.30 712.60 L 865.10 710.70 L 867.30 716.40 L 869.60 724.20 L 872.40 736.70 L 869.60 731.00 L 866.70 727.40 L 862.50 723.80 L 857.80 721.40 L 856.10 721.00 L 853.20 721.10 L 850.60 722.40 L 848.90 724.70 L 848.40 726.10 L 848.30 728.90 L 849.60 732.20 L 851.00 733.80 L 852.60 735.10 L 856.40 737.20 L 858.30 737.90 L 862.10 738.40 L 872.60 737.90 L 876.40 760.40 L 880.20 760.40 L 877.50 745.10 L 875.70 736.40 L 883.70 732.60 L 886.60 735.10 L 895.30 740.10 L 886.30 760.40 L 890.50 760.40 L 898.70 740.60 L 904.70 741.60 L 909.20 741.90 L 913.00 741.70 L 917.00 740.40 L 918.90 739.40 L 922.10 736.70 L 923.20 734.90 L 923.70 733.50 L 923.80 730.70 L 923.40 729.30 L 921.80 726.90 L 919.30 725.30 L 916.40 725.00 L 914.80 725.30 L 909.90 727.40 L 905.40 730.60 L 902.20 734.00 L 899.30 739.00 L 904.40 724.10 L 907.30 710.30 L 916.10 712.90 L 918.70 713.40 L 922.90 713.20 L 927.00 712.10 L 928.90 711.10 L 930.60 709.80 L 931.90 708.30 L 933.00 705.60 L 932.90 702.80 L 932.40 701.40 L 930.70 699.10 L 928.20 697.80 L 925.00 697.60 L 919.80 698.90 L 915.00 701.40 L 911.30 704.30 L 907.40 709.10 L 908.30 703.10 L 910.70 680.10 L 916.40 682.00 L 920.80 683.10 L 924.80 683.40 L 926.70 683.20 L 930.90 682.00 L 932.80 681.10 L 934.50 679.80 L 935.80 678.30 L 937.00 675.60 L 937.00 672.60 L 936.50 671.20 L 934.80 668.90 L 932.20 667.50 L 929.00 667.30 L 923.90 668.60 L 919.00 671.10 L 915.30 674.00 L 910.90 679.70 L 912.30 667.90 L 913.80 660.10 L 915.70 652.40 L 921.20 654.30 L 928.00 655.70 L 929.80 655.80 L 933.90 655.10 L 937.80 653.40 L 939.50 652.10 L 941.50 649.30 L 942.10 646.50 L 941.40 643.70 L 939.70 641.40 L 938.50 640.50 L 935.60 639.80 L 931.40 640.30 L 926.30 642.30 L 921.80 645.10 L 920.30 646.50 L 915.70 652.30 L 916.00 651.40 L 919.70 641.50 L 922.10 636.70 L 926.30 629.40 L 932.00 632.00 L 936.10 633.40 L 939.60 634.10 L 943.80 633.80 L 945.90 633.40 L 949.70 631.60 L 951.20 630.20 L 952.00 629.00 L 952.90 626.20 L 952.60 623.30 L 951.10 620.80 L 950.00 619.90 L 947.20 618.80 L 943.00 618.80 L 940.30 619.40 L 935.20 621.30 L 931.20 623.80 L 927.50 627.50 L 933.20 619.10 L 940.20 610.30 L 949.40 609.60 L 952.10 609.00 L 956.00 607.40 L 959.40 604.80 L 961.90 601.50 L 962.60 599.50 L 962.80 598.10 L 962.30 595.30 L 961.60 594.00 L 959.50 592.00 L 956.80 591.00 L 955.40 591.00 L 952.30 592.00 L 950.10 593.30 L 946.00 597.00 L 944.30 599.10 L 941.90 603.10 L 939.90 610.30 L 932.80 618.80 L 929.00 624.10 L 925.00 630.00 L 921.30 636.20 L 916.70 645.90 L 914.80 651.10 L 914.70 644.20 L 913.50 639.70 L 911.20 634.70 L 907.90 630.50 L 905.30 628.80 L 902.40 628.30 L 899.70 629.00 L 898.40 629.80 L 896.60 632.10 L 895.90 634.90 L 896.00 636.90 L 896.50 638.90 L 897.50 640.80 L 900.00 644.30 L 901.50 645.70 L 904.80 647.80 L 909.00 649.70 L 914.60 651.70 L 912.40 659.60 L 910.70 667.60 L 909.30 677.10 L 909.20 674.10 L 908.80 672.00 L 907.00 667.10 L 904.20 662.30 L 901.20 659.40 L 898.40 658.20 L 895.60 658.40 L 893.00 659.70 L 892.00 660.70 L 890.70 663.30 L 890.50 666.80 L 891.10 668.80 L 892.00 670.70 L 894.60 674.20 L 897.70 676.80 L 900.10 678.10 L 908.70 681.50 L 905.00 708.60 L 904.60 704.00 L 902.80 699.00 L 900.00 694.20 L 896.90 691.30 L 894.20 690.10 L 891.30 690.30 L 888.70 691.60 L 887.70 692.60 L 886.40 695.20 L 886.30 698.70 L 886.80 700.70 L 887.80 702.60 L 890.30 706.10 L 893.40 708.70 L 895.70 710.00 L 904.10 713.20 L 901.70 723.20 L 895.90 739.00 L 896.70 732.70 L 896.50 729.30 L 895.80 725.90 L 894.60 722.70 L 893.10 719.60 L 892.70 716.60 L 891.20 714.10 L 888.80 712.50 L 886.00 711.90 L 884.50 712.10 L 881.90 713.50 L 879.10 716.60 L 876.60 721.60 L 875.20 726.70 L 875.00 728.80 L 875.40 734.60 L 871.30 719.40 L 866.20 706.20 L 875.00 703.50 L 877.40 702.40 L 879.20 701.30 L 882.20 698.50 L 884.60 694.90 L 885.30 693.00 L 885.40 689.50 L 884.30 686.80 L 882.20 684.80 L 879.50 683.90 L 878.10 683.80 L 875.30 684.80 L 872.00 687.50 L 868.80 692.00 L 866.70 696.80 L 866.10 698.80 L 865.60 705.00 L 863.00 699.50 L 852.40 679.00 L 858.10 677.50 L 862.40 675.90 L 865.90 674.00 L 868.90 671.20 L 871.30 667.60 L 872.00 665.70 L 872.10 662.20 L 871.00 659.50 L 868.90 657.50 L 866.20 656.60 L 864.80 656.50 L 862.00 657.50 L 858.70 660.20 L 855.50 664.70 L 853.40 669.50 L 852.80 671.50 L 852.20 678.70 L 847.00 668.10 L 843.90 660.80 L 841.20 653.30 L 846.80 651.80 L 853.30 649.30 L 854.80 648.30 L 857.90 645.50 L 860.30 641.90 L 861.00 640.00 L 861.10 636.50 L 860.00 633.80 L 857.90 631.80 L 855.20 630.90 L 853.70 630.90 L 850.90 631.80 L 847.70 634.50 L 844.50 639.00 L 842.30 643.90 L 841.80 645.90 L 841.20 653.10 L 840.90 652.30 L 838.60 641.90 L 837.90 636.70 L 837.30 628.30 L 843.60 627.20 L 847.70 626.20 L 851.00 624.80 L 853.60 623.00 L 855.90 620.70 L 857.20 619.00 L 858.50 615.20 L 858.50 613.70 L 857.70 610.90 L 855.90 608.70 L 853.30 607.50 L 851.80 607.30 L 849.00 607.90 L 845.40 610.30 L 843.50 612.20 L 840.30 616.70 L 838.30 620.90 L 837.30 626.10 L 837.40 615.90 L 838.40 604.80 L 845.60 599.10 L 847.60 597.10 L 849.90 593.60 L 851.30 589.60 L 851.60 587.50 L 851.60 585.40 L 851.10 583.40 L 849.60 580.90 L 847.20 579.30 L 844.30 578.80 L 841.50 579.50 L 840.30 580.30 L 838.30 582.70 L 837.20 585.10 L 835.90 590.50 L 835.60 593.10 L 835.80 597.80 L 838.10 604.90 L 836.90 615.90 L 836.60 622.40 L 836.50 629.60 L 836.90 636.80 L 838.40 647.40 L 839.60 652.80 L 835.80 647.10 L 834.30 645.60 L 830.10 642.40 L 825.10 640.00 L 820.90 639.30 L 818.00 639.80 L 815.70 641.50 L 814.30 644.00 L 814.00 645.50 L 814.30 648.30 L 816.20 651.40 L 819.60 653.90 L 821.60 654.80 L 825.70 655.80 Z" fill="#0c0426" fill-rule="nonzero" node-id="113" stroke="none" target-height="181.60004" target-width="148.79999" target-x="814" target-y="578.8"></path><path d="M 888.60 239.80 L 927.30 239.80 L 929.70 240.40 L 930.70 241.20 L 931.90 243.40 L 932.10 258.10 L 931.50 260.50 L 930.70 261.60 L 928.50 262.80 L 888.60 263.00 L 886.20 262.30 L 885.20 261.60 L 884.00 259.40 L 883.80 244.60 L 884.00 243.40 L 885.20 241.20 L 886.20 240.40 L 888.60 239.80 Z" fill="#8c71ff" fill-rule="nonzero" node-id="115" stroke="#0c0426" stroke-linecap="round" stroke-width="1" target-height="23.199997" target-width="48.299988" target-x="883.8" target-y="239.8"></path><path d="M 914.30 281.00 L 940.10 281.00 L 942.40 281.60 L 943.50 282.40 L 944.70 284.50 L 944.90 293.10 L 944.70 294.40 L 943.50 296.60 L 941.30 297.80 L 914.30 298.00 L 911.90 297.30 L 910.80 296.60 L 909.60 294.40 L 909.60 284.50 L 910.80 282.40 L 911.90 281.60 L 914.30 281.00 Z" fill="#8c71ff" fill-rule="nonzero" node-id="117" stroke="#0c0426" stroke-linecap="round" stroke-width="1" target-height="17" target-width="35.30005" target-x="909.6" target-y="281"></path><path d="M 914.30 306.10 L 940.10 306.10 L 942.40 306.70 L 943.50 307.50 L 944.70 309.70 L 944.90 318.30 L 944.70 319.60 L 943.50 321.70 L 941.30 322.90 L 914.30 323.10 L 911.90 322.50 L 910.80 321.70 L 909.60 319.60 L 909.60 309.70 L 910.80 307.50 L 913.00 306.30 L 914.30 306.10 Z" fill="#8c71ff" fill-rule="nonzero" node-id="119" stroke="#0c0426" stroke-linecap="round" stroke-width="1" target-height="17" target-width="35.30005" target-x="909.6" target-y="306.1"></path><path d="M 914.30 331.30 L 940.10 331.30 L 942.40 331.90 L 943.50 332.70 L 944.70 334.80 L 944.90 343.40 L 944.70 344.70 L 943.50 346.80 L 941.30 348.10 L 914.30 348.30 L 911.90 347.60 L 910.80 346.80 L 909.60 344.70 L 909.60 334.80 L 910.80 332.70 L 913.00 331.40 L 914.30 331.30 Z" fill="#8c71ff" fill-rule="nonzero" node-id="121" stroke="#0c0426" stroke-linecap="round" stroke-width="1" target-height="17" target-width="35.30005" target-x="909.6" target-y="331.3"></path><path d="M 870.40 281.00 L 896.20 281.00 L 898.60 281.60 L 899.60 282.40 L 900.80 284.50 L 901.00 293.10 L 900.40 295.50 L 899.60 296.60 L 897.50 297.80 L 870.40 298.00 L 868.00 297.30 L 867.00 296.60 L 865.70 294.40 L 865.70 284.50 L 867.00 282.40 L 868.00 281.60 L 870.40 281.00 Z" fill="#8c71ff" fill-rule="nonzero" node-id="123" stroke="#0c0426" stroke-linecap="round" stroke-width="1" target-height="17" target-width="35.299988" target-x="865.7" target-y="281"></path><path d="M 907.40 263.50 L 907.40 272.50" fill="none" node-id="125" stroke="#0c0426" stroke-linecap="round" stroke-width="1" target-height="9" target-width="0" target-x="907.4" target-y="263.5"></path><path d="M 927.90 323.80 L 927.90 331.20" fill="none" node-id="127" stroke="#0c0426" stroke-linecap="round" stroke-width="1" target-height="7.4000244" target-width="0" target-x="927.9" target-y="323.8"></path><path d="M 927.90 298.80 L 927.90 305.30" fill="none" node-id="129" stroke="#0c0426" stroke-linecap="round" stroke-width="1" target-height="6.5" target-width="0" target-x="927.9" target-y="298.8"></path><path d="M 882.70 280.80 L 882.90 274.30 L 883.50 273.40 L 884.40 272.80 L 885.60 272.60 L 925.00 272.60 L 926.10 272.80 L 927.10 273.40 L 927.70 274.30 L 927.90 280.40" fill="none" node-id="131" stroke="#0c0426" stroke-linecap="round" stroke-width="1" target-height="8.199982" target-width="45.200012" target-x="882.7" target-y="272.6"></path><path d="M 249.00 219.10 L 487.90 219.10 L 487.90 248.70 L 249.00 248.70 Z" fill="#ffffff" fill-rule="nonzero" node-id="133" stroke="#0c0426" stroke-linecap="round" stroke-width="1" target-height="29.59999" target-width="238.9" target-x="249" target-y="219.1"></path><path d="M 249.00 248.70 L 487.90 248.70 L 487.90 263.60 L 249.00 263.60 Z" fill="#0c0426" fill-rule="nonzero" node-id="135" stroke="none" target-height="14.900009" target-width="238.9" target-x="249" target-y="248.7"></path><path d="M 249.00 263.40 L 487.90 263.40 L 487.90 293.10 L 249.00 293.10 Z" fill="#ffffff" fill-rule="nonzero" node-id="137" stroke="#0c0426" stroke-linecap="round" stroke-width="1" target-height="29.700012" target-width="238.9" target-x="249" target-y="263.4"></path><path d="M 249.00 293.10 L 487.90 293.10 L 487.90 307.90 L 249.00 307.90 Z" fill="#0c0426" fill-rule="nonzero" node-id="139" stroke="none" target-height="14.799988" target-width="238.9" target-x="249" target-y="293.1"></path><path d="M 249.00 307.70 L 487.90 307.70 L 487.90 337.40 L 249.00 337.40 Z" fill="#ffffff" fill-rule="nonzero" node-id="141" stroke="#0c0426" stroke-linecap="round" stroke-width="1" target-height="29.699982" target-width="238.9" target-x="249" target-y="307.7"></path><path d="M 249.00 337.40 L 487.90 337.40 L 487.90 352.20 L 249.00 352.20 Z" fill="#0c0426" fill-rule="nonzero" node-id="143" stroke="none" target-height="14.800018" target-width="238.9" target-x="249" target-y="337.4"></path><path d="M 249.00 352.00 L 487.90 352.00 L 487.90 381.70 L 249.00 381.70 Z" fill="#ffffff" fill-rule="nonzero" node-id="145" stroke="#0c0426" stroke-linecap="round" stroke-width="1" target-height="29.700012" target-width="238.9" target-x="249" target-y="352"></path><path d="M 249.00 381.70 L 487.90 381.70 L 487.90 396.50 L 249.00 396.50 Z" fill="#0c0426" fill-rule="nonzero" node-id="147" stroke="none" target-height="14.799988" target-width="238.9" target-x="249" target-y="381.7"></path><path d="M 249.00 396.40 L 487.90 396.40 L 487.90 426.00 L 249.00 426.00 Z" fill="#ffffff" fill-rule="nonzero" node-id="149" stroke="#0c0426" stroke-linecap="round" stroke-width="1" target-height="29.600006" target-width="238.9" target-x="249" target-y="396.4"></path><path d="M 249.00 426.00 L 487.90 426.00 L 487.90 440.80 L 249.00 440.80 Z" fill="#0c0426" fill-rule="nonzero" node-id="151" stroke="none" target-height="14.799988" target-width="238.9" target-x="249" target-y="426"></path><path d="M 249.00 440.70 L 487.90 440.70 L 487.90 470.30 L 249.00 470.30 Z" fill="#ffffff" fill-rule="nonzero" node-id="153" stroke="#0c0426" stroke-linecap="round" stroke-width="1" target-height="29.599976" target-width="238.9" target-x="249" target-y="440.7"></path><path d="M 249.00 470.30 L 487.90 470.30 L 487.90 485.10 L 249.00 485.10 Z" fill="#0c0426" fill-rule="nonzero" node-id="155" stroke="none" target-height="14.800018" target-width="238.9" target-x="249" target-y="470.3"></path><path d="M 249.00 485.00 L 487.90 485.00 L 487.90 514.60 L 249.00 514.60 Z" fill="#ffffff" fill-rule="nonzero" node-id="157" stroke="#0c0426" stroke-linecap="round" stroke-width="1" target-height="29.599976" target-width="238.9" target-x="249" target-y="485"></path><path d="M 249.00 514.60 L 487.90 514.60 L 487.90 529.50 L 249.00 529.50 Z" fill="#0c0426" fill-rule="nonzero" node-id="159" stroke="none" target-height="14.900024" target-width="238.9" target-x="249" target-y="514.6"></path><path d="M 249.00 529.30 L 487.90 529.30 L 487.90 559.00 L 249.00 559.00 Z" fill="#ffffff" fill-rule="nonzero" node-id="161" stroke="#0c0426" stroke-linecap="round" stroke-width="1" target-height="29.700012" target-width="238.9" target-x="249" target-y="529.3"></path><path d="M 249.00 559.00 L 487.90 559.00 L 487.90 573.80 L 249.00 573.80 Z" fill="#0c0426" fill-rule="nonzero" node-id="163" stroke="none" target-height="14.799988" target-width="238.9" target-x="249" target-y="559"></path><path d="M 249.00 573.60 L 487.90 573.60 L 487.90 603.30 L 249.00 603.30 Z" fill="#ffffff" fill-rule="nonzero" node-id="165" stroke="#0c0426" stroke-linecap="round" stroke-width="1" target-height="29.700012" target-width="238.9" target-x="249" target-y="573.6"></path><path d="M 249.00 603.30 L 487.90 603.30 L 487.90 618.10 L 249.00 618.10 Z" fill="#ffffff" fill-rule="nonzero" node-id="167" stroke="#0c0426" stroke-linecap="round" stroke-width="1" target-height="14.799988" target-width="238.9" target-x="249" target-y="603.3"></path><path d="M 276.20 235.00 L 276.00 236.50 L 274.60 239.00 L 272.10 240.40 L 270.60 240.60 L 269.10 240.40 L 266.70 239.00 L 265.20 236.50 L 265.00 235.00 L 265.20 233.50 L 266.70 231.00 L 269.10 229.60 L 270.60 229.40 L 272.10 229.60 L 274.60 231.00 L 276.00 233.50 L 276.20 235.00 Z" fill="#8c71ff" fill-rule="nonzero" node-id="169" stroke="#0c0426" stroke-linecap="round" stroke-width="1" target-height="11.200012" target-width="11.200012" target-x="265" target-y="229.4"></path><path d="M 293.00 235.00 L 292.80 236.50 L 291.40 238.90 L 288.90 240.40 L 287.40 240.60 L 285.90 240.40 L 283.50 238.90 L 282.00 236.50 L 281.80 235.00 L 282.00 233.50 L 283.50 231.00 L 285.90 229.60 L 287.40 229.40 L 290.20 230.10 L 291.40 231.00 L 292.80 233.50 L 293.00 235.00 Z" fill="#ffffff" fill-rule="nonzero" node-id="171" stroke="#0c0426" stroke-linecap="round" stroke-width="1" target-height="11.200012" target-width="11.200012" target-x="281.8" target-y="229.4"></path><path d="M 309.80 235.00 L 309.50 236.50 L 308.10 238.90 L 305.70 240.40 L 304.20 240.60 L 302.60 240.40 L 300.20 238.90 L 298.80 236.50 L 298.60 235.00 L 298.80 233.50 L 300.20 231.00 L 302.70 229.60 L 304.20 229.40 L 305.60 229.60 L 308.10 231.00 L 309.00 232.20 L 309.80 235.00 Z" fill="#ffffff" fill-rule="nonzero" node-id="173" stroke="#0c0426" stroke-linecap="round" stroke-width="1" target-height="11.200012" target-width="11.199982" target-x="298.6" target-y="229.4"></path><path d="M 339.30 227.00 L 418.40 227.00 L 418.40 241.40 L 339.30 241.40 Z" fill="#ffffff" fill-rule="nonzero" node-id="175" stroke="#0c0426" stroke-linecap="round" stroke-width="1" target-height="14.399994" target-width="79.100006" target-x="339.3" target-y="227"></path><path d="M 424.80 227.00 L 472.00 227.00 L 472.00 241.40 L 424.80 241.40 Z" fill="#ffffff" fill-rule="nonzero" node-id="177" stroke="#0c0426" stroke-linecap="round" stroke-width="1" target-height="14.399994" target-width="47.200012" target-x="424.8" target-y="227"></path><path d="M 276.20 278.90 L 276.00 280.40 L 274.60 282.90 L 272.10 284.30 L 270.60 284.50 L 267.80 283.80 L 265.80 281.70 L 265.20 280.40 L 265.00 278.90 L 265.80 276.10 L 267.80 274.10 L 270.60 273.30 L 272.10 273.50 L 274.60 275.00 L 276.00 277.40 L 276.20 278.90 Z" fill="#ffffff" fill-rule="nonzero" node-id="179" stroke="#0c0426" stroke-linecap="round" stroke-width="1" target-height="11.200012" target-width="11.200012" target-x="265" target-y="273.3"></path><path d="M 293.00 278.90 L 292.80 280.40 L 291.40 282.90 L 288.90 284.30 L 287.40 284.50 L 285.90 284.30 L 283.50 282.80 L 282.00 280.40 L 281.80 278.90 L 282.00 277.40 L 283.50 274.90 L 285.90 273.50 L 287.40 273.30 L 288.90 273.50 L 291.40 275.00 L 292.80 277.40 L 293.00 278.90 Z" fill="#8c71ff" fill-rule="nonzero" node-id="181" stroke="#0c0426" stroke-linecap="round" stroke-width="1" target-height="11.200012" target-width="11.200012" target-x="281.8" target-y="273.3"></path><path d="M 309.80 278.90 L 309.50 280.40 L 308.10 282.90 L 305.70 284.30 L 304.20 284.50 L 302.60 284.30 L 300.20 282.80 L 298.80 280.40 L 298.60 278.90 L 298.80 277.40 L 300.20 274.90 L 302.70 273.50 L 304.20 273.30 L 305.60 273.50 L 308.10 275.00 L 309.00 276.10 L 309.80 278.90 Z" fill="#ffffff" fill-rule="nonzero" node-id="183" stroke="#0c0426" stroke-linecap="round" stroke-width="1" target-height="11.200012" target-width="11.199982" target-x="298.6" target-y="273.3"></path><path d="M 339.30 270.90 L 418.40 270.90 L 418.40 285.30 L 339.30 285.30 Z" fill="#ffffff" fill-rule="nonzero" node-id="185" stroke="#0c0426" stroke-linecap="round" stroke-width="1" target-height="14.399994" target-width="79.100006" target-x="339.3" target-y="270.9"></path><path d="M 424.80 270.90 L 472.00 270.90 L 472.00 285.30 L 424.80 285.30 Z" fill="#ffffff" fill-rule="nonzero" node-id="187" stroke="#0c0426" stroke-linecap="round" stroke-width="1" target-height="14.399994" target-width="47.200012" target-x="424.8" target-y="270.9"></path><path d="M 276.20 322.90 L 276.00 324.40 L 274.60 326.80 L 272.10 328.20 L 270.60 328.40 L 267.80 327.70 L 265.80 325.70 L 265.20 324.40 L 265.00 322.90 L 265.80 320.00 L 267.80 318.00 L 270.60 317.30 L 272.10 317.50 L 274.60 318.90 L 276.00 321.30 L 276.20 322.90 Z" fill="#ffffff" fill-rule="nonzero" node-id="189" stroke="#0c0426" stroke-linecap="round" stroke-width="1" target-height="11.100006" target-width="11.200012" target-x="265" target-y="317.3"></path><path d="M 293.00 322.90 L 292.80 324.40 L 291.30 326.80 L 288.90 328.20 L 287.40 328.40 L 284.60 327.70 L 282.60 325.70 L 282.00 324.40 L 281.80 322.90 L 282.60 320.00 L 284.60 318.00 L 287.40 317.30 L 288.90 317.50 L 291.30 318.90 L 292.80 321.30 L 293.00 322.90 Z" fill="#ffffff" fill-rule="nonzero" node-id="191" stroke="#0c0426" stroke-linecap="round" stroke-width="1" target-height="11.100006" target-width="11.200012" target-x="281.8" target-y="317.3"></path><path d="M 309.80 322.90 L 309.50 324.40 L 308.10 326.80 L 305.70 328.20 L 304.20 328.40 L 301.40 327.70 L 299.30 325.70 L 298.80 324.40 L 298.60 322.90 L 299.30 320.00 L 301.40 318.00 L 304.20 317.30 L 305.70 317.50 L 308.10 318.90 L 309.50 321.30 L 309.80 322.90 Z" fill="#ffffff" fill-rule="nonzero" node-id="193" stroke="#0c0426" stroke-linecap="round" stroke-width="1" target-height="11.100006" target-width="11.199982" target-x="298.6" target-y="317.3"></path><path d="M 339.30 314.90 L 418.40 314.90 L 418.40 329.30 L 339.30 329.30 Z" fill="#ffffff" fill-rule="nonzero" node-id="195" stroke="#0c0426" stroke-linecap="round" stroke-width="1" target-height="14.399994" target-width="79.100006" target-x="339.3" target-y="314.9"></path><path d="M 424.80 314.90 L 472.00 314.90 L 472.00 329.30 L 424.80 329.30 Z" fill="#ffffff" fill-rule="nonzero" node-id="197" stroke="#0c0426" stroke-linecap="round" stroke-width="1" target-height="14.399994" target-width="47.200012" target-x="424.8" target-y="314.9"></path><path d="M 276.20 366.80 L 276.00 368.30 L 274.60 370.80 L 272.10 372.20 L 270.60 372.40 L 267.80 371.60 L 265.80 369.60 L 265.20 368.30 L 265.00 366.80 L 265.80 364.00 L 267.80 362.00 L 270.60 361.20 L 272.10 361.40 L 274.60 362.90 L 276.00 365.30 L 276.20 366.80 Z" fill="#8c71ff" fill-rule="nonzero" node-id="199" stroke="#0c0426" stroke-linecap="round" stroke-width="1" target-height="11.199982" target-width="11.200012" target-x="265" target-y="361.2"></path><path d="M 293.00 366.80 L 292.80 368.30 L 291.30 370.80 L 288.90 372.20 L 287.40 372.40 L 285.90 372.20 L 283.40 370.80 L 282.00 368.30 L 281.80 366.80 L 282.00 365.30 L 283.40 362.90 L 285.90 361.40 L 287.40 361.20 L 288.90 361.40 L 291.30 362.90 L 292.80 365.30 L 293.00 366.80 Z" fill="#ffffff" fill-rule="nonzero" node-id="201" stroke="#0c0426" stroke-linecap="round" stroke-width="1" target-height="11.199982" target-width="11.200012" target-x="281.8" target-y="361.2"></path><path d="M 309.80 366.80 L 309.50 368.30 L 308.10 370.80 L 305.70 372.20 L 304.20 372.40 L 301.40 371.60 L 299.30 369.60 L 298.80 368.30 L 298.60 366.80 L 299.30 364.00 L 301.40 362.00 L 304.20 361.20 L 305.70 361.40 L 308.10 362.90 L 309.50 365.30 L 309.80 366.80 Z" fill="#8c71ff" fill-rule="nonzero" node-id="203" stroke="#0c0426" stroke-linecap="round" stroke-width="1" target-height="11.199982" target-width="11.199982" target-x="298.6" target-y="361.2"></path><path d="M 339.30 358.80 L 418.40 358.80 L 418.40 373.20 L 339.30 373.20 Z" fill="#ffffff" fill-rule="nonzero" node-id="205" stroke="#0c0426" stroke-linecap="round" stroke-width="1" target-height="14.400024" target-width="79.100006" target-x="339.3" target-y="358.8"></path><path d="M 424.80 358.80 L 472.00 358.80 L 472.00 373.20 L 424.80 373.20 Z" fill="#ffffff" fill-rule="nonzero" node-id="207" stroke="#0c0426" stroke-linecap="round" stroke-width="1" target-height="14.400024" target-width="47.200012" target-x="424.8" target-y="358.8"></path><path d="M 276.20 410.80 L 276.00 412.40 L 275.30 413.90 L 274.20 415.10 L 272.80 415.90 L 271.10 416.30 L 269.50 416.30 L 268.00 415.70 L 266.70 414.70 L 265.70 413.40 L 265.10 411.90 L 265.00 410.20 L 265.40 408.60 L 266.30 407.20 L 267.50 406.10 L 269.00 405.40 L 270.60 405.20 L 272.10 405.40 L 274.60 406.80 L 276.00 409.20 L 276.20 410.80 Z" fill="#8c71ff" fill-rule="nonzero" node-id="209" stroke="#0c0426" stroke-linecap="round" stroke-width="1" target-height="11.099976" target-width="11.200012" target-x="265" target-y="405.2"></path><path d="M 293.00 410.80 L 292.80 412.30 L 291.40 414.70 L 288.90 416.10 L 287.40 416.40 L 285.90 416.10 L 283.50 414.70 L 282.00 412.30 L 281.80 410.80 L 282.00 409.20 L 283.50 406.80 L 285.90 405.40 L 287.40 405.20 L 288.90 405.40 L 291.40 406.80 L 292.80 409.20 L 293.00 410.80 Z" fill="#8c71ff" fill-rule="nonzero" node-id="211" stroke="#0c0426" stroke-linecap="round" stroke-width="1" target-height="11.199982" target-width="11.200012" target-x="281.8" target-y="405.2"></path><path d="M 309.80 410.80 L 309.50 412.30 L 308.10 414.70 L 305.70 416.10 L 304.20 416.40 L 301.40 415.60 L 299.30 413.60 L 298.80 412.30 L 298.60 410.80 L 299.30 407.90 L 301.40 405.90 L 304.20 405.20 L 305.70 405.40 L 308.10 406.80 L 309.50 409.20 L 309.80 410.80 Z" fill="#ffffff" fill-rule="nonzero" node-id="213" stroke="#0c0426" stroke-linecap="round" stroke-width="1" target-height="11.199982" target-width="11.199982" target-x="298.6" target-y="405.2"></path><path d="M 339.30 402.80 L 418.40 402.80 L 418.40 417.20 L 339.30 417.20 Z" fill="#ffffff" fill-rule="nonzero" node-id="215" stroke="#0c0426" stroke-linecap="round" stroke-width="1" target-height="14.400024" target-width="79.100006" target-x="339.3" target-y="402.8"></path><path d="M 424.80 402.80 L 472.00 402.80 L 472.00 417.20 L 424.80 417.20 Z" fill="#ffffff" fill-rule="nonzero" node-id="217" stroke="#0c0426" stroke-linecap="round" stroke-width="1" target-height="14.400024" target-width="47.200012" target-x="424.8" target-y="402.8"></path><path d="M 234.80 234.60 L 225.90 234.80 L 222.90 235.90 L 221.00 237.30 L 219.60 239.20 L 218.40 242.20 L 218.30 243.90 L 218.30 502.20" fill="none" node-id="219" stroke="#0c0426" stroke-linecap="butt" stroke-width="1" target-height="267.6" target-width="16.5" target-x="218.3" target-y="234.6"></path><path d="M 248.60 234.60 L 234.80 234.60" fill="none" node-id="221" stroke="#0c0426" stroke-linecap="butt" stroke-width="4" target-height="0" target-width="13.800003" target-x="234.8" target-y="234.6"></path><path d="M 236.20 325.00 L 231.40 325.00 L 231.40 523.60" fill="none" node-id="223" stroke="#0c0426" stroke-linecap="butt" stroke-width="1" target-height="198.59998" target-width="4.800003" target-x="231.4" target-y="325"></path><path d="M 247.90 325.00 L 236.20 325.00" fill="none" node-id="225" stroke="#0c0426" stroke-linecap="butt" stroke-width="4" target-height="0" target-width="11.699997" target-x="236.2" target-y="325"></path><path d="M 496.20 367.70 L 500.30 367.70 L 500.30 548.40" fill="none" node-id="227" stroke="#0c0426" stroke-linecap="butt" stroke-width="1" target-height="180.70001" target-width="4.0999756" target-x="496.2" target-y="367.7"></path><path d="M 487.90 367.70 L 496.20 367.70" fill="none" node-id="229" stroke="#0c0426" stroke-linecap="butt" stroke-width="4" target-height="0" target-width="8.300018" target-x="487.9" target-y="367.7"></path><path d="M 503.80 278.10 L 510.40 278.10 L 512.50 278.30 L 514.30 279.10 L 515.90 280.40 L 517.20 282.00 L 517.90 283.80 L 518.20 285.90 L 518.20 538.80" fill="none" node-id="231" stroke="#0c0426" stroke-linecap="butt" stroke-width="1" target-height="260.69998" target-width="14.400024" target-x="503.8" target-y="278.1"></path><path d="M 487.90 278.10 L 503.80 278.10" fill="none" node-id="233" stroke="#0c0426" stroke-linecap="butt" stroke-width="4" target-height="0" target-width="15.899994" target-x="487.9" target-y="278.1"></path><path d="M 334.40 579.20 L 334.40 562.40 L 315.60 562.40 L 315.60 545.70 L 296.90 545.70 L 296.90 529.00 L 278.10 529.00 L 278.10 512.20 L 259.40 512.20 L 259.40 495.50 L 240.70 495.50 L 240.70 478.80 L 220.50 478.80 L 220.50 461.40 L 130.70 461.40 L 130.70 760.30 L 390.30 760.30 L 390.30 579.20 L 334.40 579.20 Z" fill="#ffffff" fill-rule="nonzero" node-id="235" stroke="#0c0426" stroke-linecap="round" stroke-width="1" target-height="298.9" target-width="259.59998" target-x="130.7" target-y="461.4"></path><path d="M 893.30 760.30 L 893.30 462.10 L 521.80 462.10 L 521.80 479.40 L 501.70 479.40 L 501.70 496.10 L 483.00 496.10 L 483.00 512.90 L 464.20 512.90 L 464.20 529.60 L 445.50 529.60 L 445.50 546.30 L 426.80 546.30 L 426.80 558.40 L 408.40 558.40 L 408.40 563.10 L 408.00 563.10 L 408.00 575.70 L 388.30 575.70 L 388.30 592.40 L 369.60 592.40 L 369.60 609.20 L 350.80 609.20 L 350.80 625.90 L 332.10 625.90 L 332.10 642.60 L 313.40 642.60 L 313.40 659.40 L 294.60 659.40 L 294.60 676.10 L 224.40 676.10 L 224.40 760.30 L 893.30 760.30 Z" fill="#ffffff" fill-rule="nonzero" node-id="237" stroke="#0c0426" stroke-linecap="round" stroke-width="1" target-height="298.19998" target-width="668.9" target-x="224.4" target-y="462.1"></path><path d="M 355.60 760.40 L 355.60 743.70 L 336.90 743.70 L 336.90 727.00 L 318.20 727.00 L 318.20 710.20 L 299.40 710.20 L 299.40 693.50 L 279.30 693.50 L 279.30 676.20 L 130.70 676.20 L 130.70 760.40 L 355.60 760.40 Z" fill="#8c71ff" fill-rule="nonzero" node-id="239" stroke="#0c0426" stroke-linecap="round" stroke-width="1" target-height="84.20001" target-width="224.90001" target-x="130.7" target-y="676.2"></path><path d="M 641.40 626.90 L 632.60 605.60 L 615.20 612.80 L 612.60 609.10 L 606.80 602.40 L 600.20 596.60 L 596.50 594.10 L 603.70 576.70 L 582.40 567.80 L 575.20 585.30 L 570.80 584.50 L 562.00 583.90 L 553.20 584.50 L 548.80 585.30 L 541.60 567.80 L 520.30 576.70 L 527.50 594.10 L 523.90 596.60 L 517.20 602.40 L 511.40 609.10 L 508.90 612.80 L 491.50 605.60 L 482.60 626.90 L 500.00 634.10 L 499.20 638.50 L 498.60 647.30 L 499.20 656.20 L 500.00 660.50 L 482.60 667.80 L 491.40 689.10 L 508.80 681.90 L 511.40 685.50 L 517.20 692.20 L 523.80 698.00 L 527.50 700.60 L 520.30 718.00 L 541.60 726.80 L 548.80 709.40 L 553.20 710.20 L 562.00 710.80 L 570.80 710.20 L 575.20 709.40 L 582.40 726.80 L 603.70 718.00 L 596.50 700.60 L 600.20 698.00 L 606.80 692.20 L 612.60 685.50 L 615.20 681.90 L 632.60 689.10 L 641.40 667.80 L 624.00 660.50 L 624.80 656.20 L 625.40 647.30 L 624.80 638.50 L 624.00 634.10 Z M 577.50 684.70 L 573.50 686.10 L 569.60 687.10 L 565.70 687.60 L 561.70 687.80 L 553.90 687.00 L 546.50 684.70 L 539.70 681.10 L 533.60 676.20 L 530.90 673.30 L 528.50 670.10 L 526.40 666.60 L 524.60 662.80 L 523.20 658.90 L 522.20 654.90 L 521.70 651.00 L 521.50 647.10 L 522.30 639.30 L 524.60 631.90 L 528.20 625.00 L 533.20 618.90 L 539.20 613.90 L 546.50 610.00 L 550.50 608.60 L 554.40 607.60 L 558.30 607.00 L 562.30 606.90 L 570.00 607.70 L 577.40 610.00 L 584.30 613.60 L 590.40 618.50 L 593.10 621.40 L 595.40 624.60 L 597.50 628.00 L 599.40 631.80 L 601.70 639.50 L 602.40 647.30 L 601.70 655.20 L 599.40 662.80 L 595.60 669.80 L 590.60 675.90 L 584.50 680.90 L 577.50 684.70 Z" fill="#8c71ff" fill-rule="nonzero" node-id="241" stroke="#0c0426" stroke-linecap="round" stroke-width="1" target-height="159" target-width="158.80002" target-x="482.6" target-y="567.8"></path><path d="M 691.50 528.10 L 686.40 515.80 L 676.30 520.00 L 671.40 514.00 L 668.60 511.50 L 665.50 509.20 L 669.60 499.10 L 657.30 494.00 L 653.10 504.00 L 645.50 503.20 L 641.60 503.40 L 637.80 504.00 L 633.60 493.90 L 621.30 499.00 L 625.50 509.10 L 622.30 511.40 L 619.50 514.00 L 616.90 516.80 L 614.60 520.00 L 604.50 515.80 L 599.40 528.20 L 609.50 532.40 L 608.90 536.20 L 608.70 540.00 L 609.50 547.70 L 599.40 551.80 L 604.50 564.20 L 614.60 560.00 L 619.50 566.00 L 622.30 568.60 L 625.50 570.80 L 621.30 580.90 L 633.60 586.00 L 637.80 575.90 L 641.60 576.50 L 645.50 576.70 L 649.30 576.50 L 653.10 575.90 L 657.30 586.00 L 669.60 580.90 L 665.50 570.80 L 671.40 566.00 L 674.00 563.10 L 676.30 560.00 L 686.40 564.20 L 691.50 551.80 L 681.40 547.70 L 682.00 543.80 L 682.20 540.00 L 682.00 536.20 L 681.40 532.30 Z M 654.40 561.60 L 651.40 562.70 L 648.30 563.30 L 645.30 563.40 L 642.30 563.20 L 636.50 561.60 L 631.30 558.70 L 629.00 556.70 L 627.00 554.40 L 625.20 551.80 L 623.80 549.00 L 622.80 545.90 L 622.20 542.90 L 622.00 539.80 L 622.80 533.90 L 625.10 528.30 L 626.80 525.80 L 631.00 521.50 L 633.60 519.80 L 636.50 518.30 L 639.50 517.30 L 642.60 516.70 L 645.60 516.50 L 651.60 517.40 L 657.10 519.60 L 661.90 523.30 L 663.90 525.50 L 665.70 528.10 L 667.10 531.00 L 668.10 534.10 L 668.70 537.10 L 668.90 540.10 L 668.70 543.20 L 667.10 548.90 L 664.10 554.10 L 662.10 556.40 L 659.90 558.50 L 657.30 560.20 L 654.40 561.60 Z" fill="#8c71ff" fill-rule="nonzero" node-id="243" stroke="#0c0426" stroke-linecap="round" stroke-width="1" target-height="92.100006" target-width="92.099976" target-x="599.4" target-y="493.9"></path><path d="M 727.70 627.90 L 723.70 618.10 L 715.80 621.40 L 713.30 618.20 L 710.50 615.30 L 707.20 612.90 L 710.50 604.90 L 700.80 600.90 L 697.50 608.90 L 693.50 608.30 L 689.50 608.30 L 685.50 608.90 L 682.20 600.90 L 672.50 604.90 L 675.80 612.90 L 672.60 615.30 L 669.80 618.20 L 667.30 621.40 L 659.40 618.10 L 655.40 627.90 L 663.30 631.20 L 662.70 635.20 L 662.70 639.20 L 663.30 643.20 L 655.40 646.50 L 659.40 656.30 L 667.30 653.00 L 669.80 656.20 L 672.60 659.10 L 675.80 661.50 L 672.50 669.50 L 682.20 673.50 L 685.50 665.50 L 689.50 666.10 L 693.50 666.10 L 697.50 665.50 L 700.80 673.50 L 710.50 669.50 L 707.20 661.50 L 710.50 659.10 L 713.30 656.20 L 715.80 653.00 L 723.70 656.30 L 727.70 646.50 L 719.80 643.20 L 720.30 639.20 L 720.30 635.20 L 719.80 631.20 Z M 698.50 654.30 L 695.30 655.30 L 692.10 655.70 L 689.00 655.50 L 685.90 654.80 L 683.00 653.60 L 680.30 651.90 L 677.90 649.80 L 676.00 647.30 L 674.40 644.30 L 673.40 641.00 L 673.00 637.90 L 673.20 634.70 L 673.90 631.60 L 675.10 628.70 L 676.70 626.00 L 678.90 623.70 L 681.40 621.70 L 684.40 620.10 L 687.60 619.10 L 690.80 618.70 L 694.00 618.90 L 697.10 619.60 L 699.90 620.80 L 702.60 622.50 L 705.00 624.60 L 707.00 627.10 L 708.50 630.10 L 709.30 632.40 L 710.00 637.20 L 709.40 641.90 L 708.60 644.30 L 707.50 646.50 L 704.60 650.30 L 700.70 653.20 L 698.50 654.30 Z" fill="#8c71ff" fill-rule="nonzero" node-id="245" stroke="#0c0426" stroke-linecap="round" stroke-width="1" target-height="72.599976" target-width="72.29999" target-x="655.4" target-y="600.9"></path><path d="M 782.90 424.30 L 764.60 789.60" fill="none" node-id="247" stroke="#0c0426" stroke-linecap="butt" stroke-width="3" target-height="365.3" target-width="18.300049" target-x="764.6" target-y="424.3"></path><path d="M 847.10 424.10 L 865.20 789.60" fill="none" node-id="249" stroke="#0c0426" stroke-linecap="butt" stroke-width="3" target-height="365.49997" target-width="18.100037" target-x="847.1" target-y="424.1"></path><path d="M 781.60 453.40 L 848.50 453.40" fill="none" node-id="251" stroke="#0c0426" stroke-linecap="butt" stroke-width="3" target-height="0" target-width="66.900024" target-x="781.6" target-y="453.4"></path><path d="M 779.70 490.90 L 850.40 490.90" fill="none" node-id="253" stroke="#0c0426" stroke-linecap="butt" stroke-width="3" target-height="0" target-width="70.70001" target-x="779.7" target-y="490.9"></path><path d="M 777.80 528.40 L 852.20 528.40" fill="none" node-id="255" stroke="#0c0426" stroke-linecap="butt" stroke-width="3" target-height="0" target-width="74.400024" target-x="777.8" target-y="528.4"></path><path d="M 776.00 565.90 L 854.10 565.90" fill="none" node-id="257" stroke="#0c0426" stroke-linecap="butt" stroke-width="3" target-height="0" target-width="78.099976" target-x="776" target-y="565.9"></path><path d="M 774.10 603.40 L 855.90 603.40" fill="none" node-id="259" stroke="#0c0426" stroke-linecap="butt" stroke-width="3" target-height="0" target-width="81.80005" target-x="774.1" target-y="603.4"></path><path d="M 772.20 640.90 L 857.80 640.90" fill="none" node-id="261" stroke="#0c0426" stroke-linecap="butt" stroke-width="3" target-height="0" target-width="85.599976" target-x="772.2" target-y="640.9"></path><path d="M 770.30 678.30 L 859.60 678.30" fill="none" node-id="263" stroke="#0c0426" stroke-linecap="butt" stroke-width="3" target-height="0" target-width="89.29999" target-x="770.3" target-y="678.3"></path><path d="M 768.40 715.80 L 861.50 715.80" fill="none" node-id="265" stroke="#0c0426" stroke-linecap="butt" stroke-width="3" target-height="0" target-width="93.099976" target-x="768.4" target-y="715.8"></path><path d="M 766.60 753.30 L 863.30 753.30" fill="none" node-id="267" stroke="#0c0426" stroke-linecap="butt" stroke-width="3" target-height="0" target-width="96.70001" target-x="766.6" target-y="753.3"></path><path d="M 156.50 564.10 L 159.90 564.80 L 165.30 565.10 L 163.80 560.70 L 162.90 559.20 L 160.00 555.90 L 158.20 554.60 L 157.00 554.00 L 154.60 553.60 L 152.50 554.60 L 151.20 556.60 L 151.20 558.90 L 152.00 560.60 L 153.20 562.00 L 156.50 564.10 Z" fill="#0c0426" fill-rule="nonzero" node-id="269" stroke="none" target-height="11.5" target-width="14.100006" target-x="151.2" target-y="553.6"></path><path d="M 158.60 582.10 L 161.90 582.00 L 167.30 580.80 L 168.80 585.50 L 173.10 595.40 L 172.10 593.90 L 169.10 591.40 L 167.10 590.20 L 163.70 589.20 L 161.30 589.50 L 160.30 590.10 L 159.00 592.00 L 159.00 594.40 L 159.50 595.50 L 160.60 596.90 L 162.30 598.00 L 164.10 598.70 L 167.20 599.10 L 174.30 597.80 L 181.50 612.80 L 180.60 611.50 L 177.60 608.90 L 175.70 607.80 L 172.20 606.70 L 169.90 607.00 L 168.80 607.70 L 167.60 609.60 L 167.50 611.90 L 168.00 613.00 L 169.20 614.50 L 170.80 615.50 L 172.60 616.30 L 175.70 616.70 L 182.60 615.40 L 184.70 621.30 L 187.00 631.20 L 185.40 627.70 L 182.80 624.80 L 181.00 623.40 L 177.80 621.80 L 175.40 621.70 L 174.30 622.20 L 172.70 623.90 L 172.30 626.20 L 172.60 627.30 L 173.60 628.90 L 175.00 630.20 L 178.50 631.90 L 181.70 632.30 L 187.20 631.90 L 189.40 645.60 L 191.80 645.60 L 189.00 631.00 L 193.90 628.70 L 196.40 630.70 L 200.90 633.30 L 195.50 645.60 L 198.00 645.60 L 203.00 633.60 L 208.40 634.40 L 211.70 634.30 L 215.20 632.90 L 216.80 631.70 L 217.80 630.20 L 218.20 627.90 L 217.40 625.70 L 215.50 624.40 L 213.10 624.20 L 209.80 625.60 L 207.90 626.90 L 205.10 629.60 L 203.40 632.60 L 206.40 623.60 L 208.20 615.20 L 215.20 617.10 L 218.30 616.90 L 220.20 616.30 L 221.90 615.30 L 223.20 614.00 L 223.90 611.80 L 223.40 609.50 L 221.70 607.90 L 219.40 607.40 L 218.00 607.60 L 215.90 608.20 L 212.00 610.40 L 210.70 611.50 L 208.30 614.40 L 210.30 596.90 L 217.40 598.80 L 220.70 598.60 L 222.60 598.00 L 224.30 597.10 L 225.60 595.70 L 226.30 593.50 L 225.80 591.20 L 224.10 589.60 L 221.80 589.20 L 220.40 589.30 L 218.30 590.00 L 214.40 592.10 L 213.10 593.20 L 210.40 596.70 L 212.10 584.80 L 213.30 580.20 L 220.40 582.10 L 223.70 581.90 L 225.60 581.30 L 227.30 580.40 L 228.60 579.00 L 229.10 577.90 L 229.20 575.60 L 228.80 574.50 L 227.10 572.90 L 224.80 572.50 L 223.40 572.60 L 221.30 573.30 L 217.40 575.40 L 216.10 576.50 L 213.30 580.00 L 213.50 579.50 L 215.10 574.90 L 219.70 566.10 L 224.90 568.30 L 227.80 569.00 L 231.70 568.60 L 233.40 567.80 L 234.80 566.60 L 235.80 564.50 L 235.50 562.20 L 234.10 560.40 L 231.80 559.70 L 228.20 560.10 L 226.10 560.80 L 222.70 562.80 L 220.40 565.00 L 228.10 554.60 L 235.30 553.80 L 238.20 552.50 L 239.80 551.30 L 241.00 549.80 L 241.70 548.10 L 241.60 545.80 L 241.10 544.70 L 239.30 543.20 L 237.00 542.90 L 234.60 544.00 L 231.30 546.90 L 229.20 550.20 L 227.90 554.60 L 221.30 562.90 L 216.70 570.30 L 214.50 574.70 L 212.70 579.30 L 212.70 575.20 L 212.30 573.50 L 210.60 569.40 L 208.30 566.60 L 206.20 565.50 L 205.00 565.50 L 202.80 566.40 L 201.50 568.30 L 201.30 569.50 L 201.50 571.30 L 202.20 573.10 L 204.70 576.10 L 207.50 577.80 L 212.70 579.70 L 211.30 584.50 L 209.50 595.10 L 209.50 593.30 L 208.30 589.50 L 207.30 587.50 L 205.10 584.70 L 202.90 583.70 L 201.70 583.60 L 199.60 584.60 L 198.30 586.50 L 198.10 587.70 L 198.20 589.50 L 199.00 591.30 L 200.10 592.90 L 202.50 595.00 L 209.20 597.80 L 206.90 614.30 L 206.50 611.00 L 205.80 608.90 L 204.80 606.90 L 202.50 604.10 L 200.30 603.10 L 199.10 603.00 L 197.00 604.00 L 195.70 605.90 L 195.50 607.10 L 195.70 608.90 L 196.40 610.70 L 197.60 612.30 L 199.90 614.40 L 206.40 617.10 L 204.90 623.10 L 201.40 632.70 L 201.90 628.90 L 201.60 626.10 L 200.90 623.50 L 199.70 621.00 L 199.30 618.90 L 198.70 617.90 L 196.80 616.60 L 194.50 616.50 L 192.40 617.70 L 191.50 618.80 L 190.40 620.70 L 188.90 624.90 L 188.70 626.60 L 188.90 630.10 L 186.50 620.90 L 183.40 612.90 L 190.20 610.60 L 192.70 608.60 L 193.90 607.10 L 194.70 605.30 L 195.00 603.50 L 194.40 601.30 L 192.70 599.60 L 190.50 599.20 L 188.20 600.10 L 187.20 601.00 L 185.80 602.70 L 183.70 606.70 L 183.20 608.30 L 182.90 612.00 L 174.80 596.30 L 181.80 594.00 L 184.40 592.10 L 185.70 590.50 L 186.60 588.80 L 186.90 587.00 L 186.30 584.80 L 184.60 583.10 L 182.30 582.70 L 180.10 583.60 L 179.00 584.50 L 177.60 586.20 L 175.60 590.10 L 175.10 591.80 L 174.70 596.20 L 171.50 589.70 L 168.10 580.70 L 175.00 578.40 L 177.70 576.40 L 179.00 574.90 L 179.90 573.20 L 180.20 571.40 L 179.60 569.10 L 177.90 567.50 L 175.60 567.10 L 173.40 568.00 L 172.30 568.90 L 170.90 570.60 L 168.90 574.50 L 168.40 576.20 L 168.00 580.60 L 167.80 580.10 L 166.70 575.40 L 165.70 565.50 L 171.20 564.50 L 174.00 563.40 L 177.00 560.90 L 178.10 559.30 L 178.60 557.60 L 178.30 555.30 L 176.70 553.50 L 174.60 552.80 L 172.30 553.40 L 169.50 555.80 L 168.10 557.60 L 166.40 561.00 L 165.70 564.20 L 166.40 551.20 L 172.00 546.60 L 173.70 543.90 L 174.30 542.00 L 174.50 540.10 L 174.10 538.30 L 173.60 537.20 L 171.80 535.80 L 170.60 535.50 L 168.30 535.90 L 166.60 537.60 L 165.90 538.80 L 164.80 543.10 L 164.90 547.00 L 166.20 551.40 L 165.30 562.00 L 165.50 570.70 L 166.10 575.50 L 167.20 580.40 L 164.80 577.00 L 163.60 575.80 L 159.90 573.30 L 157.80 572.50 L 156.40 572.30 L 154.00 572.60 L 153.00 573.20 L 151.80 575.10 L 151.70 577.40 L 152.20 578.60 L 153.30 579.90 L 155.00 581.00 L 158.60 582.10 Z" fill="#0c0426" fill-rule="nonzero" node-id="271" stroke="none" target-height="110.099976" target-width="90" target-x="151.7" target-y="535.5"></path><path d="M 219.50 565.40 L 220.70 561.00 L 220.60 557.10 L 219.40 552.80 L 218.70 551.60 L 217.00 550.00 L 214.70 549.70 L 212.50 550.60 L 211.20 552.50 L 210.90 554.40 L 211.20 556.30 L 211.90 558.20 L 213.70 560.90 L 219.50 565.40 Z" fill="#0c0426" fill-rule="nonzero" node-id="273" stroke="none" target-height="15.700012" target-width="9.800003" target-x="210.9" target-y="549.7"></path><path d="M 211.50 679.30 L 177.40 679.30 L 173.10 641.40 L 215.70 641.40 L 211.50 679.30 Z" fill="#ffffff" fill-rule="nonzero" node-id="275" stroke="#0c0426" stroke-linecap="round" stroke-width="1" target-height="37.899963" target-width="42.59999" target-x="173.1" target-y="641.4"></path><path d="M 173.90 648.40 L 174.30 652.00 L 214.50 652.00 L 214.90 648.40 L 173.90 648.40 Z" fill="#0c0426" fill-rule="nonzero" node-id="277" stroke="none" target-height="3.5999756" target-width="41" target-x="173.9" target-y="648.4"></path><path d="M 213.60 660.10 L 214.00 656.40 L 174.80 656.40 L 175.20 660.10 L 213.60 660.10 Z" fill="#0c0426" fill-rule="nonzero" node-id="279" stroke="none" target-height="3.6999512" target-width="39.199997" target-x="174.8" target-y="656.4"></path><path d="M 623.30 280.00 L 808.60 280.00 L 810.70 280.30 L 812.60 281.10 L 814.20 282.30 L 815.50 283.90 L 816.30 285.80 L 816.60 288.00 L 816.60 318.10 L 816.30 320.30 L 815.50 322.20 L 814.20 323.80 L 812.60 325.00 L 810.70 325.80 L 808.60 326.10 L 623.30 326.10 L 621.20 325.80 L 619.30 325.00 L 617.70 323.80 L 616.40 322.20 L 615.60 320.30 L 615.30 318.10 L 615.30 288.00 L 615.60 285.80 L 616.40 283.90 L 617.70 282.30 L 619.30 281.10 L 621.20 280.30 L 623.30 280.00 Z" fill="#ffffff" fill-rule="nonzero" node-id="281" stroke="#0c0426" stroke-linecap="butt" stroke-width="1" target-height="46.100006" target-width="201.29999" target-x="615.3" target-y="280"></path><path d="M 665.60 303.10 L 664.90 299.60 L 662.90 296.60 L 660.00 294.70 L 658.20 294.10 L 654.70 294.10 L 651.50 295.50 L 648.90 298.00 L 647.60 301.30 L 647.60 304.80 L 649.00 308.10 L 650.10 309.50 L 653.00 311.40 L 656.50 312.10 L 658.90 311.80 L 661.10 310.90 L 662.90 309.50 L 664.30 307.60 L 665.20 305.50 L 665.60 303.10 Z" fill="#ffffff" fill-rule="nonzero" node-id="283" stroke="#0c0426" stroke-linecap="round" stroke-width="1" target-height="18" target-width="18" target-x="647.6" target-y="294.1"></path><path d="M 675.60 303.10 L 720.20 303.10" fill="none" node-id="285" stroke="#0c0426" stroke-linecap="round" stroke-width="1" target-height="0" target-width="44.600037" target-x="675.6" target-y="303.1"></path><path d="M 736.70 303.10 L 781.30 303.10" fill="none" node-id="287" stroke="#0c0426" stroke-linecap="round" stroke-width="1" target-height="0" target-width="44.599976" target-x="736.7" target-y="303.1"></path><path d="M 653.30 348.60 L 838.60 348.60 L 840.70 348.90 L 842.60 349.70 L 844.20 351.00 L 845.50 352.60 L 846.30 354.50 L 846.60 356.60 L 846.60 386.80 L 846.30 388.90 L 845.50 390.80 L 844.20 392.40 L 842.60 393.70 L 840.70 394.50 L 838.60 394.80 L 653.30 394.80 L 651.20 394.50 L 649.30 393.70 L 647.70 392.40 L 646.40 390.80 L 645.60 388.90 L 645.30 386.80 L 645.30 356.60 L 645.60 354.50 L 646.40 352.60 L 647.70 351.00 L 649.30 349.70 L 651.20 348.90 L 653.30 348.60 Z" fill="#ffffff" fill-rule="nonzero" node-id="289" stroke="#0c0426" stroke-linecap="butt" stroke-width="1" target-height="46.19998" target-width="201.29999" target-x="645.3" target-y="348.6"></path><path d="M 695.60 371.70 L 695.30 369.30 L 694.30 367.10 L 692.90 365.30 L 691.10 363.90 L 688.90 362.90 L 686.50 362.60 L 684.10 362.90 L 681.90 363.90 L 680.10 365.30 L 678.70 367.10 L 677.80 369.30 L 677.40 371.70 L 677.80 374.10 L 678.70 376.30 L 680.10 378.10 L 681.90 379.50 L 684.10 380.40 L 686.50 380.80 L 688.90 380.40 L 691.10 379.50 L 692.90 378.10 L 694.30 376.30 L 695.30 374.10 L 695.60 371.70 Z" fill="#ffffff" fill-rule="nonzero" node-id="291" stroke="#0c0426" stroke-linecap="round" stroke-width="1" target-height="18.199982" target-width="18.199951" target-x="677.4" target-y="362.6"></path><path d="M 705.60 371.70 L 750.20 371.70" fill="none" node-id="293" stroke="#0c0426" stroke-linecap="round" stroke-width="1" target-height="0" target-width="44.600037" target-x="705.6" target-y="371.7"></path><path d="M 766.70 371.70 L 811.30 371.70" fill="none" node-id="295" stroke="#0c0426" stroke-linecap="round" stroke-width="1" target-height="0" target-width="44.599976" target-x="766.7" target-y="371.7"></path><path d="M 615.30 303.10 L 608.70 303.10 L 606.60 303.30 L 604.70 304.10 L 603.10 305.40 L 601.90 307.00 L 601.10 308.80 L 600.80 310.90 L 600.80 346.70" fill="none" node-id="297" stroke="#0c0426" stroke-linecap="butt" stroke-width="1" target-height="43.600006" target-width="14.5" target-x="600.8" target-y="303.1"></path><path d="M 645.30 375.70 L 608.70 375.70 L 606.60 375.50 L 604.70 374.70 L 603.10 373.40 L 601.90 371.80 L 601.10 370.00 L 600.80 367.90 L 600.80 329.30" fill="none" node-id="299" stroke="#0c0426" stroke-linecap="butt" stroke-width="1" target-height="46.400024" target-width="44.5" target-x="600.8" target-y="329.3"></path></svg>