<?xml version="1.0" encoding="utf-8"?>
<!-- Generator: Adobe Illustrator 27.0.1, SVG Export Plug-In . SVG Version: 6.00 Build 0)  -->
<svg version="1.1" id="图层_1" xmlns="http://www.w3.org/2000/svg" xmlns:xlink="http://www.w3.org/1999/xlink" x="0px" y="0px"
	 viewBox="0 0 2038.6 2332.2" style="enable-background:new 0 0 2038.6 2332.2;" xml:space="preserve">
<style type="text/css">
	.st0{fill:url(#SVGID_1_);}
	.st1{fill:url(#SVGID_00000159452712451321436770000015533893597632737421_);}
	.st2{fill:#FFFFFF;}
	.st3{fill:url(#SVGID_00000070111298218266968670000006059377673481727893_);}
	.st4{fill:url(#SVGID_00000003787783493647274610000005600760970672431774_);}
	.st5{fill:url(#SVGID_00000100381672939020476140000004638119838955530681_);}
	.st6{fill:url(#SVGID_00000014595209121004282190000016435158994972351154_);}
</style>
<linearGradient id="SVGID_1_" gradientUnits="userSpaceOnUse" x1="1462.0223" y1="1949.0853" x2="405.7908" y2="500.7843">
	<stop  offset="0" style="stop-color:#2E1F4A"/>
	<stop  offset="1" style="stop-color:#587DA7"/>
</linearGradient>
<path class="st0" d="M59.2,496.4l243.2,1730.7c9.4,67,73.5,113.6,142.7,103.9l1298-183.7c68.1-9.6,115.5-70.5,106.3-136.5
	L1607.6,280.6c-9.4-67-73.4-113.7-142.6-104L165.5,359.8C97.3,369.4,49.9,430.4,59.2,496.4z"/>
<linearGradient id="SVGID_00000036935523558682796030000010140309444995704987_" gradientUnits="userSpaceOnUse" x1="1798.353" y1="1750.8024" x2="449.8944" y2="530.4042">
	<stop  offset="0" style="stop-color:#AC45F8"/>
	<stop  offset="1" style="stop-color:#6EBFF7"/>
</linearGradient>
<path style="fill:url(#SVGID_00000036935523558682796030000010140309444995704987_);" d="M180.4,367.8l237.9,1705.1
	c12.4,88.7,94.4,150.4,183.1,137.8l1257.2-179.2c88.2-12.6,149.7-94.1,137.4-182.4L1759.4,144.6c-12.3-88.7-94.3-150.5-183-137.9
	L317.9,185.3C229.6,197.8,168.1,279.5,180.4,367.8z"/>
<path class="st2" d="M290.2,391.9l217.5,1599.9c8.4,61.9,65.7,105.1,127.6,96L1796,1918c60.9-8.9,103.3-65.2,95.1-126.2
	L1674.8,192.5c-8.4-61.9-65.7-105.1-127.5-96.1L385.4,265.6C324.4,274.5,281.9,330.9,290.2,391.9z"/>
<linearGradient id="SVGID_00000044897981699484078210000013639033947689616298_" gradientUnits="userSpaceOnUse" x1="1778.7671" y1="1603.3219" x2="760.3425" y2="1330.4358" gradientTransform="matrix(0.9999 -1.560000e-02 1.560000e-02 0.9999 -26.0501 57.7555)">
	<stop  offset="0" style="stop-color:#B040F6"/>
	<stop  offset="1" style="stop-color:#6FC4FB"/>
</linearGradient>
<path style="fill:url(#SVGID_00000044897981699484078210000013639033947689616298_);" d="M1490.5,1234.8
	c13.8-0.2,25.9,9.9,28.2,23.5l46.2,317.3c1.3,7.5-0.5,15.1-5,21.3c-4.5,6.2-11.2,10.2-18.7,11.3l-732.7,106.4
	c-1.2,0.2-2.5,0.3-3.7,0.3c-13.8,0.2-26-10-28.2-23.7l-44-314.8c-1.2-7.5,0.6-15,5.1-21.1c4.5-6.1,11.1-10.1,18.6-11.3l730.5-109
	C1488,1234.9,1489.3,1234.8,1490.5,1234.8 M1489.8,1190.4c-3.2,0-6.4,0.3-9.7,0.8l-730.5,109c-40,6-67.5,43.5-61,83.5l44,314.8
	c5.8,36,37.2,61.6,72.8,61c3.1,0,6.2-0.3,9.4-0.8l732.7-106.4c40.3-5.9,67.9-43.7,61.2-83.9l-46.2-317.3
	C1556.5,1215.2,1525.2,1189.8,1489.8,1190.4L1489.8,1190.4z"/>
<linearGradient id="SVGID_00000121238040024251145760000003740209021539929761_" gradientUnits="userSpaceOnUse" x1="1203.9215" y1="1064.4955" x2="822.57" y2="403.2397">
	<stop  offset="0" style="stop-color:#AA43F7"/>
	<stop  offset="1" style="stop-color:#6EC3FC"/>
</linearGradient>
<path style="fill:url(#SVGID_00000121238040024251145760000003740209021539929761_);" d="M885.5,920.7l-74.8,25.8l-32.2-93.4
	L699,865l103.8,301.1l66.4-50l-35.8-103.9l121-41.7l34.2-108.6l-101-15.6L885.5,920.7z M1279.5,804.2l137.4-167.5l-658-152.5
	l-64.1,22.1l-41.3,157.5l15.5,45l572.5,112.4L1279.5,804.2L1279.5,804.2z M726.1,735.6l-27.2,59.8l572.5,112.4l42.7-14.7l14.2-28.2
	l-0.1-69.7l-48.5,67.1L726.1,735.6z"/>
<g>
	
		<linearGradient id="SVGID_00000124866289536776188120000007148474403975408798_" gradientUnits="userSpaceOnUse" x1="1391.4084" y1="1471.3375" x2="1060.8574" y2="1514.2041" gradientTransform="matrix(1 9.700000e-03 -9.700000e-03 1 14.2729 -35.4103)">
		<stop  offset="0" style="stop-color:#AA43F7"/>
		<stop  offset="1" style="stop-color:#6EC3FC"/>
	</linearGradient>
	<path style="fill:url(#SVGID_00000124866289536776188120000007148474403975408798_);" d="M1002.4,1329.4l-79.3,343.1l75.8-9.4
		l14.8-78.2L1133,1570l33.9,72.1l76.3-9.5l-158.6-313.5L1002.4,1329.4z M1022.3,1529l23.2-119.3c1.9-9.3,2.6-18.8,2.3-28.5l1.9-0.2
		c2.5,11.7,5.3,21.1,8.6,28l51.4,109.1L1022.3,1529z"/>
	
		<linearGradient id="SVGID_00000070812427708169026330000012431193585013605505_" gradientUnits="userSpaceOnUse" x1="1323.7269" y1="1488.1582" x2="1165.4153" y2="1508.0029" gradientTransform="matrix(0.9999 1.490000e-02 -1.490000e-02 0.9999 21.2914 -51.2172)">
		<stop  offset="0" style="stop-color:#AA43F7"/>
		<stop  offset="1" style="stop-color:#6EC3FC"/>
	</linearGradient>
	<polygon style="fill:url(#SVGID_00000070812427708169026330000012431193585013605505_);" points="1313.6,1290.7 1243.7,1299.4 
		1284.5,1627.6 1354.4,1618.8 	"/>
</g>
</svg>
